<svg width="512" height="512" viewBox="0 0 512 512" fill="none" xmlns="http://www.w3.org/2000/svg">
  <rect width="512" height="512" rx="96" fill="#111827"/>
  <path d="M126 350V162H166L260 284V162H308V350H268L174 228V350H126Z" fill="white"/>
  <path d="M352 354C330 354 312 347 298 332C284 317 277 296 277 270V242C277 216 284 195 298 180C312 165 331 158 354 158C373 158 389 163 402 173C415 183 423 198 427 216L383 226C380 217 376 210 371 206C366 202 359 200 351 200C343 200 336 203 331 210C326 217 323 227 323 241V272C323 287 326 297 331 304C336 311 344 314 354 314C362 314 369 312 375 307C381 302 385 295 388 285L431 295C427 314 418 329 404 339C390 349 373 354 352 354Z" fill="#60A5FA"/>
</svg>
